<?xml version="1.0" encoding="UTF-8"?><svg id="Layer_1" xmlns="http://www.w3.org/2000/svg" viewBox="0 0 432.33 462.56"><defs><style>.cls-1{fill:#5391cd;stroke-width:0px;}</style></defs><g id="g6531"><path id="path6529" class="cls-1" d="M336.77,314.81c-2.74-10.43-1.17-39.82-1.17-48.69l.84-80.21c0-19.73-4.08-34.37-12.24-43.88-8.16-9.52-19.21-14.28-33.17-14.28-11.94,0-22.28,4.26-31.03,12.77-8.75,8.51-15.25,20.75-19.5,36.71h-1.42c-1.78-32.98-16.08-49.48-42.92-49.48-24.24,0-41.8,16.5-52.68,49.48h-1.42c-.59-18.68-1.89-33.93-3.89-45.76h-39.02c1.77,16.56,2.65,41.26,2.65,74.13v123.43h42.74v-46.1c0-34.29,3.63-62.61,10.92-84.95,7.26-22.34,16.33-33.51,27.21-33.51,9.94,0,14.9,8.1,14.9,24.3v140.28h42.92v-46.1c0-22.11,1.65-42.32,4.96-60.65,3.31-18.32,7.87-32.55,13.66-42.65,5.79-10.11,12.18-15.16,19.15-15.16,10.17,0,15.25,8.1,15.25,24.3l-.16,110.06c0,16.67,3.34,29.47,10.02,38.4,6.68,8.92,17.86,16.95,30.86,16.95"/><path id="path2929-5" class="cls-1" d="M212.33,462.39c-84.95.93-172.75-49.25-197.52-133.21C-18.71,230.17,3.47,105.29,93.69,43.86c87.48-64.46,229.3-60.24,299.36,28.48,46.63,62.57,48.13,149.51,23.36,220.75-13.36,39.03-52.43,73.01-94,58.11-32.4-26.68-4.46-56.02,13.54-35.67,26.87,10.87,43.4-22.54,47.77-43.83,15.32-70.88,11.68-159.6-50.92-207.1C252.92,6.4,126.76,31.42,75.18,116.04c-47.4,74.56-46.94,181.44,8.01,251.85,52.58,64.43,146.13,67.84,221.54,50.66,24.89-5.2,50.31-14.76,72.71-24.15,1.97,18.79,2.64,37.81-19.82,40.95-45.55,20.03-95.5,28.55-145.28,27.04Z"/></g></svg>